# xmcd
#
# Track frame offsets: 
#        150
#        14883
#        26453
#        39469
#        48854
#        58292
#        69263
#        76734
#        89459
#        101735
#        113259
#        125538
#        133503
#        148124
#        160931
#        171511
#        186264
#        196813
#
# Disc length: 2767 seconds
#
# Revision: 0
# Processed by: cddbd v1.5.2PL0 Copyright (c) Steve Scherf et al.
# Submitted via: ExactAudioCopy v0.95b4
#
DISCID=f60acd12
DTITLE=George Jones - Country Roads - CD 2
DYEAR=2008
DGENRE=Country
TTITLE0=He Stopped Loving Her Today
TTITLE1=She Thinks I Still Care
TTITLE2=A Girl I Used To Know
TTITLE3=The Race Is On
TTITLE4=Old Brush Arbors
TTITLE5=Don't You Ever Get Tired Of Hurting Me
TTITLE6=Jambalaya
TTITLE7=A Lifetime To Regret
TTITLE8=Blue Side Of Lonesome
TTITLE9=A House Without Love Is Not A Home
TTITLE10=My Favourite Lies
TTITLE11=Yes, I Know
TTITLE12=It's Funny What A Fool Will Do
TTITLE13=When I Wake Up From Dreaming
TTITLE14=Nothing Ever Hurt Me (Half As Bad As Losing You)
TTITLE15=Who's Gonna Fill Their Shoes
TTITLE16=Her Name Is...
TTITLE17=(We're Not) The Jet Set
EXTD=
EXTT0=
EXTT1=
EXTT2=
EXTT3=
EXTT4=
EXTT5=
EXTT6=
EXTT7=
EXTT8=
EXTT9=
EXTT10=
EXTT11=
EXTT12=
EXTT13=
EXTT14=
EXTT15=
EXTT16=
EXTT17=
PLAYORDER=
